<svg xmlns:inkscape="http://www.inkscape.org/namespaces/inkscape" xmlns:sodipodi="http://sodipodi.sourceforge.net/DTD/sodipodi-0.dtd" xmlns="http://www.w3.org/2000/svg" xmlns:svg="http://www.w3.org/2000/svg" width="60px" height="60px" viewBox="0 0 100 100" version="1.1" id="svg5" xml:space="preserve" inkscape:version="1.2.2 (b0a8486541, 2022-12-01)" sodipodi:docname="icon.tar">
  <sodipodi:namedview id="namedview7" pagecolor="#ffffff" bordercolor="#000000" borderopacity="0.25" inkscape:showpageshadow="2" inkscape:pageopacity="0.0" inkscape:pagecheckerboard="0" inkscape:deskcolor="#d1d1d1" inkscape:document-units="mm" showgrid="false" inkscape:zoom="1.4164562" inkscape:cx="162.02407" inkscape:cy="189.91056" inkscape:window-width="1920" inkscape:window-height="961" inkscape:window-x="0" inkscape:window-y="27" inkscape:window-maximized="1" inkscape:current-layer="layer2"/>
  <defs id="defs2"/>
  <g inkscape:groupmode="layer" id="layer3" inkscape:label="quirky-frame" style="display:inline">
    <rect width="100" height="100" style="fill:#9a8ff7;fill-opacity:1;stroke:none;stroke-width:0.847317"/>
    <path id="path1681" style="display:inline;fill:#ffffff;fill-opacity:1;stroke-width:0.0969359" d="M 46.596057,90.383657 C 29.172403,89.191845 14.059561,76.078558 10.980994,59.480757 5.2359898,28.507089 36.705495,3.4783254 65.330325,16.254912 c 6.156134,2.747767 6.554531,3.264391 4.096591,5.312117 -0.454522,0.378671 -1.312141,1.17508 -1.905794,1.769806 -1.423039,1.425581 -1.352711,1.413176 -2.869995,0.50596 -17.210986,-10.290889 -41.38448,2.603318 -44.849045,23.92261 -3.825837,23.54238 18.750066,41.504077 41.174756,32.7592 11.760338,-4.586136 20.689251,-17.931645 20.046275,-29.96195 -0.129199,-2.41737 -0.263639,-3.918847 -0.413784,-4.621171 -0.222347,-1.040153 -0.199119,-1.086224 0.994648,-1.973725 0.571317,-0.424721 1.565522,-1.208444 2.209347,-1.741585 2.509919,-2.078454 2.649207,-2.09548 3.074345,-0.37552 C 93.204105,67.40411 72.647372,92.165608 46.596057,90.383657 Z M 28.997302,70.94989 c -2.209837,-1.104268 -2.17912,-2.516946 0.09195,-4.228231 4.008688,-3.020646 6.860585,-2.039105 4.358845,1.50019 -1.963548,2.777897 -3.035807,3.435121 -4.450786,2.728041 z m 23.075635,-3.638374 c -0.07999,-0.02983 -0.341694,-0.196239 -0.58162,-0.369848 -2.73248,-1.977398 -10.433611,-5.006202 -15.509734,-6.099873 -1.825536,-0.393313 -2.150025,-0.650908 -2.711977,-2.15286 -0.940192,-2.512868 -0.421815,-7.014759 0.925891,-8.040949 1.281582,-0.975848 5.807978,0.731019 11.905614,4.489497 2.500961,1.54155 2.520912,1.534829 3.510668,-1.182074 2.621584,-7.196355 16.503872,-23.816796 23.496239,-28.130651 4.004901,-2.470761 4.461989,-2.571298 6.695017,-1.472669 3.67143,1.80632 5.514094,4.297485 6.495614,8.781627 0.334645,1.528807 0.01898,2.0677 -1.859418,3.173865 -4.118712,2.425538 -8.47864,5.566991 -11.379679,8.199397 -9.076731,8.236239 -15.174106,15.139333 -18.999929,21.510595 -0.709634,1.18178 -1.283978,1.555853 -1.986686,1.293943 z M 23.932835,52.709652 c -0.98467,-0.279818 -1.278087,-0.846016 -1.211722,-2.33822 0.105691,-2.376326 1.259115,-2.801836 4.305655,-1.588377 2.512874,1.000894 3.312669,1.908223 2.709767,3.074106 -0.352069,0.680825 -4.344271,1.267235 -5.8037,0.852491 z m 9.161434,-13.61883 c -1.472838,-0.521721 -4.284748,-3.31627 -4.285571,-4.259117 -0.0022,-2.469904 2.97605,-3.07682 4.449679,-0.90681 2.336965,3.441324 2.254945,6.022812 -0.164108,5.165927 z"/>
  </g>
</svg>
